<?xml version="1.0" encoding="utf-8"?>
<svg version="1.1" xmlns:xlink="http://www.w3.org/1999/xlink" width="18px" height="17px" xmlns="http://www.w3.org/2000/svg">
  <g transform="matrix(1 0 0 1 -526 -77 )">
    <path d="M 17.000613311646394 8.5  C 17.000613311646394 6.245509557403284  16.104961101694087 4.083369854316904  14.510714288085937 2.4892857119140626  C 12.916680011325752 0.8954140846726926  10.75480319708449 0  8.500613311646394 0  C 3.8061929380846493 0  0.0006133116463937771 3.8055796264382558  0.0006133116463937771 8.5  C 0.0006133116463937771 13.194420373561744  3.8061929380846493 17  8.500613311646394 17  C 10.75480319708449 17  12.916680011325752 16.104585915327306  14.510714288085937 14.510714288085937  C 16.104961101694084 12.9166301456831  17.000613311646394 10.754490442596712  17.000613311646394 8.5  Z M 9.359107135742187 8.5  L 11.420357135742186 10.56125  C 11.501184161953091 10.64159466329868  11.546633081834191 10.750855327138533  11.546633081834191 10.864821432128906  C 11.546633081834191 10.978787537119278  11.501184161953091 11.088048200959129  11.420357135742188 11.168392864257811  L 11.162321423828125 11.426428576171874  C 11.081976761183322 11.507255597278128  10.972716100909079 11.552704513913262  10.85875 11.552704513913262  C 10.744783899090923 11.552704513913262  10.63552323881668 11.507255597278128  10.555178576171876 11.426428576171874  L 8.5 9.359107135742187  L 6.438750000000001 11.420357135742186  C 6.358405336701317 11.501184161953091  6.249144672861467 11.546633081834191  6.135178567871094 11.546633081834191  C 6.02121246288072 11.546633081834191  5.911951799040869 11.501184161953091  5.831607135742187 11.420357135742186  L 5.573571423828124 11.162321423828123  C 5.49274440272187 11.08197676118332  5.447295486086736 10.972716100909077  5.447295486086736 10.858749999999999  C 5.447295486086736 10.744783899090923  5.49274440272187 10.635523238816676  5.573571423828125 10.555178576171874  L 7.640892864257812 8.5  L 5.579642864257812 6.438750000000001  C 5.498815838046907 6.358405336701318  5.4533669181658055 6.249144672861467  5.4533669181658055 6.135178567871094  C 5.4533669181658055 6.02121246288072  5.498815838046907 5.911951799040869  5.579642864257812 5.831607135742187  L 5.837678576171873 5.573571423828124  C 5.918023238816677 5.49274440272187  6.0272838990909205 5.447295486086736  6.141249999999999 5.447295486086736  C 6.255216100909077 5.447295486086736  6.3644767611833215 5.49274440272187  6.444821423828124 5.573571423828125  L 8.5 7.640892864257812  L 10.561250000000001 5.579642864257812  C 10.64159466329868 5.498815838046907  10.750855327138535 5.453366918165806  10.864821432128906 5.453366918165806  C 10.978787537119278 5.453366918165806  11.088048200959129 5.498815838046907  11.168392864257811 5.579642864257812  L 11.426428576171872 5.837678576171873  C 11.507255597278128 5.918023238816677  11.552704513913262 6.0272838990909205  11.552704513913262 6.141249999999999  C 11.552704513913262 6.255216100909077  11.507255597278128 6.3644767611833215  11.426428576171872 6.444821423828124  L 9.359107135742187 8.5  Z " fill-rule="nonzero" fill="#ffffff" stroke="none" transform="matrix(1 0 0 1 526 77 )" />
  </g>
</svg>