<?xml version="1.0" encoding="utf-8"?>
<svg version="1.1" xmlns:xlink="http://www.w3.org/1999/xlink" width="17px" height="10px" xmlns="http://www.w3.org/2000/svg">
  <g transform="matrix(1 0 0 1 -322 -18 )">
    <path d="M 0.998011508702531 9.84895200876697  C 1.26016555432961 9.84895200876697  1.51038838264303 9.7428737794678  1.68818411234177 9.55636364583333  L 8.50978134810127 2.401212109375  L 15.3320045981013 9.55636364583333  C 15.5098003299525 9.74287378536029  15.7600231636302 9.84895201833555  16.0221772151899 9.84895201833555  C 16.5408719449889 9.84895201833555  16.9613571037491 9.44186467100644  16.9613571037491 8.93969697916666  C 16.9613571037491 8.71114889869961  16.8724550194321 8.49098283016784  16.7123498322785 8.3230303125  L 9.20026698575949 0.444242421874996  C 9.02249769135627 0.257686797050541  8.77226502082703 0.151576150433515  8.51009436867089 0.151576150433515  C 8.24792371651474 0.151576150433515  7.9976910459855 0.257686797050543  7.81992175158228 0.444242421874998  L 0.307838905063291 8.3230303125  C 0.147733715774305 8.490982829135  0.0588316300267748 8.7111488980565  0.0588316300267748 8.93969697916666  C 0.0588316300267748 9.44186466572186  0.479316784361976 9.84895200876697  0.998011508702531 9.84895200876697  Z " fill-rule="nonzero" fill="#0b79df" stroke="none" transform="matrix(1 0 0 1 322 18 )" />
  </g>
</svg>